<?xml version="1.0" encoding="iso-8859-1"?>
<!-- Generator: Adobe Illustrator 19.0.0, SVG Export Plug-In . SVG Version: 6.00 Build 0)  -->
<svg version="1.1" id="Layer_1" xmlns="http://www.w3.org/2000/svg" x="0px" y="0px"
	 viewBox="0 0 512 512" style="enable-background:new 0 0 512 512;" xml:space="preserve">
<circle style="fill:#FABC3D;" cx="256" cy="256" r="256"/>
<path style="fill:#E2E4E5;" d="M397.773,113.818c-0.158-0.163-0.354-0.265-0.517-0.419c-9.086-8.578-23.505-8.471-32.396,0.419
	L113.818,364.861c-8.89,8.89-8.997,23.31-0.419,32.396c0.154,0.163,0.261,0.358,0.419,0.517c9.053,9.053,23.864,9.053,32.912,0
	L397.773,146.73C406.821,137.677,406.821,122.866,397.773,113.818z"/>
<path style="fill:#FFFFFF;" d="M364.861,113.818L113.818,364.861c-8.89,8.89-8.997,23.31-0.419,32.396l283.862-283.857
	C388.17,104.82,373.751,104.927,364.861,113.818z"/>
<g>
	<path style="fill:#3E3E3F;" d="M224.531,285.091l-64.842-64.842c-7.242-7.242-19.088-7.242-26.331,0l-13.163,13.168
		c-7.242,7.242-7.242,19.088,0,26.331l13.163,13.168l-13.163,13.163c-7.242,7.242-7.242,19.093,0,26.331l13.163,13.163
		l-13.163,13.168c-7.242,7.242-7.242,19.088,0,26.331l12.181,12.181l14.15,14.15c7.242,7.242,19.088,7.242,26.331,0l13.163-13.163
		l13.163,13.163c7.242,7.242,19.088,7.242,26.331,0l13.163-13.163l13.163,13.163c7.242,7.242,19.088,7.242,26.331,0l13.163-13.163
		c7.242-7.242,7.242-19.088,0-26.331L224.531,285.091z"/>
	<path style="fill:#3E3E3F;" d="M392.746,197.832l-13.163-13.168l13.163-13.168c7.242-7.242,7.242-19.088,0-26.331l-14.15-14.15
		l-12.181-12.181c-7.242-7.242-19.088-7.242-26.331,0l-13.163,13.168l-13.163-13.168c-7.242-7.242-19.088-7.242-26.331,0
		l-13.163,13.168l-13.163-13.168c-7.242-7.242-19.088-7.242-26.331,0l-13.163,13.168c-7.242,7.238-7.242,19.088,0,26.331
		l64.833,64.842l66.811,66.811c7.242,7.242,19.088,7.242,26.331,0l13.163-13.168c7.242-7.238,7.242-19.088,0-26.331l-13.163-13.163
		l13.163-13.168C399.988,216.92,399.988,205.075,392.746,197.832z"/>
</g>
<g>
	<path style="fill:#5B5C5F;" d="M159.688,220.248c-7.242-7.242-19.088-7.242-26.331,0l-13.163,13.168
		c-7.242,7.242-7.242,19.088,0,26.331l13.163,13.168l-13.163,13.163c-7.242,7.242-7.242,19.093,0,26.331l13.163,13.163
		l-13.163,13.168c-7.242,7.242-7.242,19.088,0,26.331l12.181,12.181l26.331-26.331l26.331-26.331l39.494-39.494L159.688,220.248z"/>
	<path style="fill:#5B5C5F;" d="M366.415,118.84c-7.242-7.242-19.088-7.242-26.331,0l-13.168,13.168l-13.163-13.168
		c-7.238-7.242-19.088-7.242-26.331,0l-13.163,13.168l-13.168-13.168c-7.242-7.242-19.088-7.242-26.331,0l-13.163,13.168
		c-7.242,7.238-7.242,19.088,0,26.331l64.842,64.838l39.494-39.494l26.331-26.331l26.331-26.331L366.415,118.84z"/>
</g>
<g>
</g>
<g>
</g>
<g>
</g>
<g>
</g>
<g>
</g>
<g>
</g>
<g>
</g>
<g>
</g>
<g>
</g>
<g>
</g>
<g>
</g>
<g>
</g>
<g>
</g>
<g>
</g>
<g>
</g>
</svg>
